<svg xmlns="http://www.w3.org/2000/svg" viewBox="0 0 400 200" preserveAspectRatio="xMidYMid slice">
  <defs>
    <linearGradient id="engGrad" x1="0%" y1="0%" x2="100%" y2="100%">
      <stop offset="0%" style="stop-color:#0f172a;stop-opacity:1" />
      <stop offset="100%" style="stop-color:#1e3a8a;stop-opacity:1" />
    </linearGradient>
    <pattern id="grid" width="40" height="40" patternUnits="userSpaceOnUse">
      <path d="M 40 0 L 0 0 0 40" fill="none" stroke="rgba(59, 130, 246, 0.2)" stroke-width="1"/>
    </pattern>
  </defs>
  
  <!-- Base Background -->
  <rect width="100%" height="100%" fill="url(#engGrad)"/>
  <rect width="100%" height="100%" fill="url(#grid)"/>

  <!-- Gears / Technical Elements -->
  <g opacity="0.15" fill="#60a5fa">
     <!-- Large Gear -->
     <path transform="translate(30, 100) scale(1.5)" d="M49.9,26.6l-5.4-2.8c-0.6-2.2-1.5-4.2-2.7-6.1l3.5-5c0.5-0.7,0.4-1.7-0.2-2.3l-4.2-4.2c-0.6-0.6-1.6-0.7-2.3-0.2 l-5,3.5c-1.9-1.2-3.9-2.1-6.1-2.7l-2.8-5.4C24.4,0.5,23.5,0,22.6,0h-6c-0.9,0-1.7,0.5-2.1,1.3l-2.8,5.4 c-2.2,0.6-4.2,1.5-6.1,2.7l-5-3.5c-0.7-0.5-1.7-0.4-2.3,0.2l-4.2,4.2c-0.6,0.6-0.7,1.6-0.2,2.3l3.5,5c-1.2,1.9-2.1,3.9-2.7,6.1 L1.4,26.6C0.5,27,0,27.9,0,28.8v6c0,0.9,0.5,1.7,1.3,2.1l5.4,2.8c0.6,2.2,1.5,4.2,2.7,6.1l-3.5,5c-0.5,0.7-0.4,1.7,0.2,2.3 l4.2,4.2c0.6,0.6,1.6,0.7,2.3,0.2l5-3.5c1.9,1.2,3.9,2.1,6.1,2.7l2.8,5.4C26.9,62.3,27.8,62.8,28.6,62.8h6 c0.9,0,1.7-0.5,2.1-1.3l2.8-5.4c2.2-0.6,4.2-1.5,6.1-2.7l5,3.5c0.7,0.5,1.7,0.4,2.3-0.2l4.2-4.2c0.6-0.6,0.7-1.6,0.2-2.3 l-3.5-5c1.2-1.9,2.1-3.9,2.7-6.1l5.4-2.8c0.8-0.4,1.3-1.3,1.3-2.1v-6C51.2,27.9,50.7,27,49.9,26.6z M25.6,44.2 c-7.1,0-12.8-5.7-12.8-12.8s5.7-12.8,12.8-12.8s12.8,5.7,12.8,12.8S32.7,44.2,25.6,44.2z"/>
     
     <!-- Connecting Lines -->
     <path d="M100 100 L300 100" stroke="#3b82f6" stroke-width="2" stroke-dasharray="5,5"/>
     <circle cx="100" cy="100" r="4" fill="#3b82f6"/>
     <circle cx="300" cy="100" r="4" fill="#3b82f6"/>

     <!-- Circuit Nodes -->
     <circle cx="350" cy="40" r="30" stroke="#3b82f6" stroke-width="2" fill="none"/>
     <circle cx="350" cy="40" r="10" fill="#3b82f6"/>
  </g>
</svg>
